<svg width="10" height="11" viewBox="0 0 10 11" fill="none" xmlns="http://www.w3.org/2000/svg">
<g id="Icon/chart-bar">
<path id="Icon" d="M1.4 6C1.4 5.94477 1.44477 5.9 1.5 5.9H2.5C2.55523 5.9 2.6 5.94477 2.6 6V8.5C2.6 8.55523 2.55523 8.6 2.5 8.6H1.5C1.44477 8.6 1.4 8.55523 1.4 8.5V6ZM4.4 4C4.4 3.94477 4.44477 3.9 4.5 3.9H5.5C5.55523 3.9 5.6 3.94477 5.6 4V8.5C5.6 8.55523 5.55523 8.6 5.5 8.6H4.5C4.44477 8.6 4.4 8.55523 4.4 8.5V4ZM7.4 2.5C7.4 2.44477 7.44477 2.4 7.5 2.4H8.5C8.55523 2.4 8.6 2.44477 8.6 2.5V8.5C8.6 8.55523 8.55523 8.6 8.5 8.6H7.5C7.44477 8.6 7.4 8.55523 7.4 8.5V2.5Z" fill="#404040" stroke="#555B6D" stroke-width="0.8"/>
</g>
</svg>
