<svg width="10" height="11" viewBox="0 0 10 11" fill="none" xmlns="http://www.w3.org/2000/svg">
<g id="Icon/Outline/office-building">
<path id="Icon" d="M7.91667 9.25V2.58333C7.91667 2.1231 7.54357 1.75 7.08333 1.75H2.91667C2.45643 1.75 2.08333 2.1231 2.08333 2.58333V9.25M7.91667 9.25L8.75 9.24999M7.91667 9.25H5.83333M2.08333 9.25L1.25 9.24999M2.08333 9.25H4.16667M3.75 3.41666H4.16667M3.75 5.08332H4.16667M5.83333 3.41666H6.25M5.83333 5.08332H6.25M4.16667 9.25V7.16666C4.16667 6.93654 4.35321 6.74999 4.58333 6.74999H5.41667C5.64679 6.74999 5.83333 6.93654 5.83333 7.16666V9.25M4.16667 9.25H5.83333" stroke="#495057" stroke-linecap="round" stroke-linejoin="round"/>
</g>
</svg>
